# xmcd
#
# Track frame offsets: 
#        150
#        16422
#        33166
#        51048
#        69133
#        87164
#        103793
#        122095
#        139244
#        156794
#        175153
#        196045
#
# Disc length: 2847 seconds
#
# Revision: 3
# Processed by: cddbd v1.4PL0 Copyright (c) Steve Scherf et al.
# Submitted via: ExactAudioCopy v0.95a3
#
DISCID=920b1d0c
DTITLE=AC-DC - Stiff upper lip
DYEAR=2000
DGENRE=
TTITLE0=Stiff Upper Lip
TTITLE1=Meltdown
TTITLE2=House of Jazz
TTITLE3=Hold Me Back
TTITLE4=Safe In New York City
TTITLE5=Can't Stand Still
TTITLE6=Can't Stop Rock n Roll
TTITLE7=Satellite Blues
TTITLE8=Damned
TTITLE9=Come and Get It
TTITLE10=All Screwed Up
TTITLE11=Give It Up
EXTD=
EXTT0=
EXTT1=
EXTT2=
EXTT3=
EXTT4=
EXTT5=
EXTT6=
EXTT7=
EXTT8=
EXTT9=
EXTT10=
EXTT11=
PLAYORDER=
